<?xml version="1.0" encoding="UTF-8" standalone="no"?>
<!-- Created with Inkscape (http://www.inkscape.org/) -->

<svg
   width="70.693306mm"
   height="13.656348mm"
   viewBox="0 0 70.693306 13.656348"
   version="1.1"
   id="svg5"
   inkscape:version="1.1.1 (1:1.1+202109281949+c3084ef5ed)"
   sodipodi:docname="opencilk.svg"
   xmlns:inkscape="http://www.inkscape.org/namespaces/inkscape"
   xmlns:sodipodi="http://sodipodi.sourceforge.net/DTD/sodipodi-0.dtd"
   xmlns="http://www.w3.org/2000/svg"
   xmlns:svg="http://www.w3.org/2000/svg">
  <sodipodi:namedview
     id="namedview7"
     pagecolor="#ffffff"
     bordercolor="#666666"
     borderopacity="1.0"
     inkscape:pageshadow="2"
     inkscape:pageopacity="0.0"
     inkscape:pagecheckerboard="0"
     inkscape:document-units="mm"
     showgrid="false"
     fit-margin-top="0"
     fit-margin-left="0"
     fit-margin-right="0"
     fit-margin-bottom="0"
     inkscape:zoom="0.64052329"
     inkscape:cx="200.61722"
     inkscape:cy="245.8927"
     inkscape:window-width="1848"
     inkscape:window-height="1016"
     inkscape:window-x="72"
     inkscape:window-y="27"
     inkscape:window-maximized="1"
     inkscape:current-layer="layer1" />
  <defs
     id="defs2" />
  <g
     inkscape:label="Layer 1"
     inkscape:groupmode="layer"
     id="layer1"
     transform="translate(-51.905964,-83.45437)">
    <g
       aria-label="OpenCilk"
       id="text3410"
       style="font-size:14.1111px;-inkscape-font-specification:sans-serif;text-align:end;text-anchor:end;stroke-width:0.264583">
      <path
         d="m 57.197626,85.624779 q -1.212672,0 -1.88102,0.895724 -0.668348,0.895724 -0.668348,2.521808 0,1.619193 0.668348,2.514917 0.668348,0.895725 1.88102,0.895725 1.219563,0 1.887911,-0.895725 0.668348,-0.895724 0.668348,-2.514917 0,-1.626084 -0.668348,-2.521808 -0.668348,-0.895724 -1.887911,-0.895724 z m 0,-1.922362 q 2.480467,0 3.886065,1.419378 1.405598,1.419378 1.405598,3.920516 0,2.494247 -1.405598,3.913625 -1.405598,1.419378 -3.886065,1.419378 -2.473576,0 -3.886064,-1.419378 -1.405598,-1.419378 -1.405598,-3.913625 0,-2.501138 1.405598,-3.920516 1.412488,-1.419378 3.886064,-1.419378 z"
         style="-inkscape-font-specification:'sans-serif Bold'"
         id="path11508" />
      <path
         d="m 66.850777,93.059289 v 4.051429 H 64.38409 V 86.458491 h 2.466687 v 1.12999 q 0.509873,-0.675238 1.12999,-0.992186 0.620117,-0.323839 1.426268,-0.323839 1.426269,0 2.342664,1.136881 0.916394,1.12999 0.916394,2.914548 0,1.784558 -0.916394,2.921439 -0.916395,1.12999 -2.342664,1.12999 -0.806151,0 -1.426268,-0.316948 -0.620117,-0.323839 -1.12999,-0.999077 z m 1.639864,-4.995385 q -0.792372,0 -1.219563,0.585666 -0.420301,0.578776 -0.420301,1.674315 0,1.09554 0.420301,1.681205 0.427191,0.578776 1.219563,0.578776 0.792371,0 1.205782,-0.578776 0.420302,-0.578775 0.420302,-1.681205 0,-1.10243 -0.420302,-1.681205 -0.413411,-0.578776 -1.205782,-0.578776 z"
         style="-inkscape-font-specification:'sans-serif Bold'"
         id="path11510" />
      <path
         d="m 82.188329,90.296324 v 0.702799 h -5.767086 q 0.08957,0.868164 0.627007,1.302245 0.537435,0.434082 1.502061,0.434082 0.778591,0 1.591633,-0.227376 0.819932,-0.234266 1.681205,-0.702799 v 1.901691 q -0.875054,0.330729 -1.750107,0.496094 -0.875054,0.172254 -1.750107,0.172254 -2.094617,0 -3.259058,-1.061088 -1.157551,-1.067979 -1.157551,-2.990341 0,-1.887911 1.13688,-2.96967 1.143771,-1.081759 3.141925,-1.081759 1.819009,0 2.907658,1.09554 1.09554,1.095539 1.09554,2.928328 z m -2.535588,-0.819932 q 0,-0.702799 -0.413412,-1.12999 -0.406521,-0.434082 -1.067978,-0.434082 -0.71658,0 -1.164442,0.406521 -0.447862,0.399631 -0.558105,1.157551 z"
         style="-inkscape-font-specification:'sans-serif Bold'"
         id="path11512" />
      <path
         d="m 91.813919,89.476392 v 4.699107 h -2.480467 v -0.764811 -2.831866 q 0,-0.999077 -0.04823,-1.378037 -0.04134,-0.37896 -0.151584,-0.558105 -0.144694,-0.241157 -0.392741,-0.37207 -0.248046,-0.137804 -0.564995,-0.137804 -0.771701,0 -1.212672,0.599446 -0.440972,0.592556 -0.440972,1.646755 v 3.796492 H 84.05557 v -7.717008 h 2.466687 v 1.12999 q 0.558105,-0.675238 1.185112,-0.992186 0.627007,-0.323839 1.384927,-0.323839 1.336696,0 2.025715,0.819932 0.695908,0.819932 0.695908,2.384004 z"
         style="-inkscape-font-specification:'sans-serif Bold'"
         id="path11514" />
      <path
         d="m 102.36968,93.610504 q -0.73036,0.37896 -1.52273,0.571885 -0.79237,0.192925 -1.653642,0.192925 -2.570039,0 -4.072099,-1.433158 -1.502061,-1.440049 -1.502061,-3.899845 0,-2.466687 1.502061,-3.899845 1.50206,-1.440049 4.072099,-1.440049 0.861272,0 1.653642,0.192925 0.79237,0.192925 1.52273,0.571885 v 2.129068 q -0.73725,-0.502984 -1.45383,-0.73725 -0.71657,-0.234266 -1.508946,-0.234266 -1.419378,0 -2.23242,0.909504 -0.813042,0.909505 -0.813042,2.508028 0,1.591633 0.813042,2.501137 0.813042,0.909505 2.23242,0.909505 0.792376,0 1.508946,-0.234267 0.71658,-0.234266 1.45383,-0.73725 z"
         style="-inkscape-font-specification:'sans-serif Bold'"
         id="path11516" />
      <path
         d="m 104.45741,86.458491 h 2.46669 v 7.717008 h -2.46669 z m 0,-3.004121 h 2.46669 v 2.011934 h -2.46669 z"
         style="-inkscape-font-specification:'sans-serif Bold'"
         id="path11518" />
      <path
         d="m 109.29432,83.45437 h 2.46669 v 10.721129 h -2.46669 z"
         style="-inkscape-font-specification:'sans-serif Bold'"
         id="path11520" />
      <path
         d="m 114.13123,83.45437 h 2.46669 v 5.835987 l 2.83875,-2.831866 h 2.86632 l -3.76893,3.541555 4.06521,4.175453 h -2.99034 l -3.01101,-3.217717 v 3.217717 h -2.46669 z"
         style="-inkscape-font-specification:'sans-serif Bold'"
         id="path11522" />
    </g>
  </g>
</svg>
